<svg width="80" height="80" viewBox="0 0 80 80" fill="none" xmlns="http://www.w3.org/2000/svg">
<g id="link-2">
<path id="Vector" d="M50.0002 23.3333L60.0002 23.3333C62.1889 23.3333 64.3561 23.7644 66.3782 24.602C68.4003 25.4396 70.2376 26.6673 71.7853 28.2149C73.3329 29.7625 74.5606 31.5999 75.3982 33.622C76.2357 35.644 76.6668 37.8113 76.6668 40C76.6668 42.1887 76.2357 44.356 75.3982 46.3781C74.5606 48.4002 73.3329 50.2375 71.7853 51.7851C70.2376 53.3328 68.4003 54.5604 66.3782 55.398C64.3561 56.2356 62.1889 56.6667 60.0002 56.6667H50.0002M30.0002 56.6667H20.0002C17.8115 56.6667 15.6442 56.2356 13.6221 55.398C11.6 54.5604 9.76269 53.3328 8.21505 51.7851C5.08944 48.6595 3.3335 44.4203 3.3335 40C3.3335 35.5797 5.08944 31.3405 8.21505 28.2149C11.3407 25.0893 15.5799 23.3333 20.0002 23.3333H30.0002" stroke="#141414" stroke-width="2" stroke-linecap="round" stroke-linejoin="round"/>
<path id="Vector_2" d="M26.6665 40H53.3332" stroke="#141414" stroke-width="2" stroke-linecap="round" stroke-linejoin="round"/>
</g>
</svg>
