<svg width="17" height="17" viewBox="0 0 17 17" fill="none" xmlns="http://www.w3.org/2000/svg">
<g id="magic wand">
<path id="Vector" d="M5.45887 4.31619C5.43991 4.5416 5.11191 4.59859 5.00642 4.39481L4.43834 3.29767C4.4016 3.22658 4.32675 3.17907 4.24209 3.17292L2.93485 3.07809C2.692 3.06049 2.63061 2.75601 2.85016 2.65807L4.03196 2.13074C4.10849 2.09658 4.15977 2.02715 4.16632 1.94854L4.26849 0.73494C4.28745 0.509529 4.61545 0.452535 4.72095 0.656321L5.28902 1.75346C5.32576 1.82455 5.40052 1.87207 5.48527 1.87821L6.79252 1.97303C7.03536 1.99064 7.09675 2.29511 6.8772 2.39306L5.6954 2.92039C5.61878 2.95457 5.56759 3.02397 5.56104 3.10259L5.45887 4.31619Z" fill="white"/>
<path id="Vector_2" d="M1.70581 5.1442C1.67416 5.25336 1.50731 5.25336 1.47565 5.1442L1.30518 4.55649C1.29417 4.51841 1.26209 4.48867 1.22109 4.47842L0.588026 4.32018C0.470422 4.29079 0.470422 4.13591 0.588026 4.10652L1.22109 3.94828C1.26209 3.93802 1.29417 3.90828 1.30518 3.87021L1.47565 3.28249C1.50731 3.17333 1.67416 3.17333 1.70581 3.28249L1.87628 3.87021C1.88729 3.90828 1.91933 3.93802 1.96037 3.94828L2.59344 4.10652C2.71104 4.13591 2.71104 4.29079 2.59344 4.32018L1.96037 4.47842C1.91933 4.48867 1.88729 4.51841 1.87628 4.55649L1.70581 5.1442Z" fill="white"/>
<path id="Vector_3" d="M3.88794 8.51993C3.85628 8.6291 3.68944 8.6291 3.65778 8.51993L3.48731 7.93222C3.4763 7.89414 3.44422 7.8644 3.40322 7.85415L2.77015 7.69591C2.65255 7.66652 2.65255 7.51164 2.77015 7.48225L3.40322 7.32401C3.44422 7.31375 3.4763 7.28402 3.48731 7.24594L3.65778 6.65822C3.68944 6.54906 3.85628 6.54906 3.88794 6.65822L4.05841 7.24594C4.06942 7.28402 4.10145 7.31375 4.1425 7.32401L4.77557 7.48225C4.89317 7.51164 4.89317 7.66652 4.77557 7.69591L4.1425 7.85415C4.10145 7.8644 4.06942 7.89414 4.05841 7.93222L3.88794 8.51993Z" fill="white"/>
<path id="Vector_4" d="M2.03109 7.19688C2.00998 7.26966 1.89875 7.26966 1.87765 7.19688L1.764 6.80507C1.75666 6.77969 1.73527 6.75986 1.70794 6.75303L1.2859 6.64753C1.20749 6.62794 1.20749 6.52469 1.2859 6.50509L1.70794 6.3996C1.73527 6.39276 1.75666 6.37294 1.764 6.34755L1.87765 5.95574C1.89875 5.88297 2.00998 5.88297 2.03109 5.95574L2.14473 6.34755C2.15207 6.37294 2.17343 6.39276 2.20079 6.3996L2.62284 6.50509C2.70124 6.52469 2.70124 6.62794 2.62284 6.64753L2.20079 6.75303C2.17343 6.75986 2.15207 6.77969 2.14473 6.80507L2.03109 7.19688Z" fill="white"/>
<path id="Vector_5" d="M7.12239 5.84654C7.10129 5.91932 6.99006 5.91932 6.96896 5.84654L6.85531 5.45473C6.84797 5.42935 6.82658 5.40952 6.79925 5.40268L6.37721 5.29719C6.2988 5.2776 6.2988 5.17434 6.37721 5.15475L6.79925 5.04926C6.82658 5.04242 6.84797 5.0226 6.85531 4.99721L6.96896 4.6054C6.99006 4.53263 7.10129 4.53263 7.12239 4.6054L7.23604 4.99721C7.24338 5.0226 7.26474 5.04242 7.2921 5.04926L7.71415 5.15475C7.79255 5.17434 7.79255 5.2776 7.71415 5.29719L7.2921 5.40268C7.26474 5.40952 7.24338 5.42935 7.23604 5.45473L7.12239 5.84654Z" fill="white"/>
<path id="Vector 1" d="M14.3184 14.0032L13.5912 14.6783M4.15802 5.0424L15.9627 15.0878C16.2557 15.3372 16.2657 15.7631 15.9846 16.024V16.024C15.7046 16.284 15.2499 16.2779 14.9807 16.0081C10.905 11.9232 3.72867 4.70759 4.15802 5.0424Z" stroke="white"/>
</g>
</svg>
